<svg id="图层_1" data-name="图层 1" xmlns="http://www.w3.org/2000/svg" viewBox="0 0 200 200"><title>baocun</title><path d="M171.3,0H28.6A28.59,28.59,0,0,0,0,28.6V171.4A28.59,28.59,0,0,0,28.6,200H171.4A28.59,28.59,0,0,0,200,171.4V28.6A28.74,28.74,0,0,0,171.3,0Zm-29,14.8V71H57.7V14.8Zm43.3,156.6a14.28,14.28,0,0,1-14.2,14.3H28.6a14.34,14.34,0,0,1-14.3-14.3V28.6A14.3,14.3,0,0,1,28.6,14.3H42.9V71.5A14.28,14.28,0,0,0,57.1,85.8h85.8a14.3,14.3,0,0,0,14.3-14.3V14.3h14.3a14.3,14.3,0,0,1,14.3,14.3l-.2,142.8Z"/><path d="M100,57.4a7.38,7.38,0,0,0,7.4-7.4V35.8a7.4,7.4,0,1,0-14.8,0V50.1A7.36,7.36,0,0,0,100,57.4Z"/></svg>