<svg id="图层_1" data-name="图层 1" xmlns="http://www.w3.org/2000/svg" viewBox="0 0 200 200"><title>beizhu</title><path d="M172.4.1H27.8C13.4.1,1.9,10.1,1.9,22.9V177.4c0,12.4,11.6,22.8,25.9,22.8H172.3c14.4,0,25.9-10,25.9-22.8V22.5C198.3,10.1,186.7.1,172.4.1Zm-129,46h83a7.6,7.6,0,0,1,7.6,7.6h0a7.6,7.6,0,0,1-7.6,7.6h-83a7.6,7.6,0,0,1-7.6-7.6h0A7.6,7.6,0,0,1,43.4,46.1Zm0,45.9H158.7a7.6,7.6,0,0,1,7.6,7.6h0a7.6,7.6,0,0,1-7.6,7.6H43.4a7.6,7.6,0,0,1-7.6-7.6h0A7.6,7.6,0,0,1,43.4,92Zm0,45.5H158.7a7.6,7.6,0,0,1,7.6,7.6h0a7.6,7.6,0,0,1-7.6,7.6H43.4a7.6,7.6,0,0,1-7.6-7.6h0A7.6,7.6,0,0,1,43.4,137.5Z"/></svg>