<svg id="图层_1" data-name="图层 1" xmlns="http://www.w3.org/2000/svg" viewBox="0 0 200 200"><title>chongfu</title><path d="M102,11.5v.4a8.92,8.92,0,0,0,8.1,8.9A79.62,79.62,0,1,1,22.4,100,81.05,81.05,0,0,1,41.2,48.4v15a9,9,0,0,0,9,9h.4a9,9,0,0,0,9-9V20.3a5.12,5.12,0,0,0-5.1-5.1H9a9,9,0,0,0-9,9v.4a9,9,0,0,0,9,9H29.6a98.23,98.23,0,0,0,76.3,164.3c50.8-2,92-43.2,94-94C202,51.5,162.6,7.7,112,2.5A9,9,0,0,0,102,11.5Z"/><path d="M122.9,93.4,92.8,76a4.4,4.4,0,0,0-6.6,3.8v34.8a4.4,4.4,0,0,0,6.6,3.8L122.9,101A4.41,4.41,0,0,0,122.9,93.4Z"/></svg>