<svg id="图层_1" data-name="图层 1" xmlns="http://www.w3.org/2000/svg" viewBox="0 0 200 200"><title>denglu</title><path d="M154.2,100a7.94,7.94,0,0,1-2.5,5.9L80.9,176.7a8.16,8.16,0,0,1-5.9,2.5,7.94,7.94,0,0,1-5.9-2.5,8.16,8.16,0,0,1-2.5-5.9V133.3H8.3a7.94,7.94,0,0,1-5.9-2.5A8,8,0,0,1,0,125V75a7.94,7.94,0,0,1,2.5-5.9,8.16,8.16,0,0,1,5.9-2.5H66.7V29.1a7.94,7.94,0,0,1,2.5-5.9,8.16,8.16,0,0,1,5.9-2.5A7.94,7.94,0,0,1,81,23.2l70.8,70.9A8.67,8.67,0,0,1,154.2,100ZM200,54.1v91.7a37.56,37.56,0,0,1-37.5,37.5H120.8a4.1,4.1,0,0,1-4.1-4.1c0-.4-.1-1.2-.1-2.6s-.1-2.6-.1-3.4a13.12,13.12,0,0,1,.4-3.1,4.93,4.93,0,0,1,1.3-2.6,3.57,3.57,0,0,1,2.6-.9h41.7a20.83,20.83,0,0,0,20.8-20.8V54.1a20.41,20.41,0,0,0-6.1-14.7,20,20,0,0,0-14.7-6.1H121.9a9.89,9.89,0,0,1-1.5-.1,3.44,3.44,0,0,1-1.5-.4c-.3-.2-.6-.4-1.1-.7a2.15,2.15,0,0,1-.9-1.2,8.42,8.42,0,0,1-.3-1.8c0-.3-.1-1.2-.1-2.6s-.1-2.5-.1-3.5a10.32,10.32,0,0,1,.4-3,5.39,5.39,0,0,1,1.3-2.5,4,4,0,0,1,2.6-.8h41.7a36.25,36.25,0,0,1,26.5,11A35.74,35.74,0,0,1,200,54.1Z"/></svg>