<svg id="图层_1" data-name="图层 1" xmlns="http://www.w3.org/2000/svg" viewBox="0 0 200 200"><title>haoyou</title><path d="M123.8,106.2a8.5,8.5,0,1,0,17,0h0a8.5,8.5,0,1,0-17,0Z"/><path d="M119.6,24.7a8.5,8.5,0,1,0,17,0h0a8.5,8.5,0,1,0-17,0Z"/><path d="M200,171.3A74,74,0,0,0,156.8,104a49.22,49.22,0,0,0-28.7-87.8v17a32.35,32.35,0,0,1,30.2,32.2c0,16.4-11.7,30.5-27.5,32.5a3.29,3.29,0,0,0-2.7,2.7v12.6c0-4.2.6-.1,1.5-.1l1,1.5c29.8,1.8,52.3,26.5,52.3,56.8h0v.2a8.5,8.5,0,0,0,17,0l.1-.3Z"/><path d="M27.7,65.3A48.5,48.5,0,1,0,76.2,16.8,48.48,48.48,0,0,0,27.7,65.3Z"/><path d="M152.4,172.8a4.1,4.1,0,0,0-.1-1.1,76.55,76.55,0,0,0-152.2.1c0,.3-.1.5-.1.8v.3a7.6,7.6,0,0,0,7.6,7.6H144.8a7.6,7.6,0,0,0,7.6-7.6v-.1Z"/></svg>