<svg id="图层_1" data-name="图层 1" xmlns="http://www.w3.org/2000/svg" viewBox="0 0 200 200"><title>richen</title><path d="M177.9,5.9H164.8V3.8c0-2.2-3.1-3.8-7.2-3.8s-7.2,1.9-7.2,3.8V6H40.4V3.8c0-2.2-3.1-3.8-7.2-3.8S26,1.9,26,3.8V6H22.3C10.1,6,.1,15.7.1,27.3V178.2a22,22,0,0,0,22.2,21.9H177.9c12.2,0,22.2-9.7,22.2-21.6V27.5C200.1,15.6,190.1,5.9,177.9,5.9ZM150.1,90.3l-65,65.3L48.9,119.3a9.66,9.66,0,0,1,0-13.7c3.7-4.1,9.7-4.1,13.7,0l22.2,22.8,51.9-51.6c3.8-4.1,9.7-4.1,13.8,0C154.2,80.6,154.2,86.3,150.1,90.3Zm33.2-46.5H17V33.4H183.3Z"/></svg>