<svg id="图层_1" data-name="图层 1" xmlns="http://www.w3.org/2000/svg" viewBox="0 0 200 200"><title>rizhi</title><path d="M162.9,23.4H155v22H44.9v-22H37A25.12,25.12,0,0,0,11.9,48.5V174.4A25.12,25.12,0,0,0,37,199.5H162.9A25.12,25.12,0,0,0,188,174.4V48.5A25.05,25.05,0,0,0,162.9,23.4ZM56,155.5c-8.15,0-14.16-8.75-9.2-17.42a7.57,7.57,0,0,1,2.78-2.78c8.67-5,17.42,1,17.42,9.2A11,11,0,0,1,56,155.5Zm6.1-56.63C51.46,104.64,40.86,94,46.63,83.4a8,8,0,0,1,3.27-3.27C60.54,74.36,71.14,85,65.37,95.6A8,8,0,0,1,62.1,98.87ZM144,155.5H98.24a8.19,8.19,0,0,1-6.8-3.56c-6.07-9,.09-18.44,8.56-18.44h45.76a8.19,8.19,0,0,1,6.8,3.56C158.63,146.05,152.47,155.5,144,155.5Zm0-55H98.24a8.19,8.19,0,0,1-6.8-3.56C85.37,88,91.53,78.5,100,78.5h45.57a8.34,8.34,0,0,1,6.57,3.22C158.9,90.42,152.66,100.5,144,100.5Z"/><path d="M65.5-.4h68.9A9.6,9.6,0,0,1,144,9.2V23a9.6,9.6,0,0,1-9.6,9.6H65.5A9.6,9.6,0,0,1,55.9,23V9.1A9.58,9.58,0,0,1,65.5-.4Z"/></svg>