<svg id="图层_1" data-name="图层 1" xmlns="http://www.w3.org/2000/svg" viewBox="0 0 200 200"><title>shanchu</title><path d="M194.4,33.2H155.6V5.6A5.47,5.47,0,0,0,150,0H50a5.47,5.47,0,0,0-5.6,5.6V33.1H5.6a5.6,5.6,0,0,0,0,11.2H194.4a5.55,5.55,0,1,0,0-11.1ZM55.6,11.2h88.8V33.6H55.6Z"/><path d="M166.8,66.7a5.47,5.47,0,0,0-5.6,5.6V188.9H38.8V72.3a5.6,5.6,0,1,0-11.2,0V194.5a5.47,5.47,0,0,0,5.6,5.6H166.4a5.47,5.47,0,0,0,5.6-5.6V72.3A5.15,5.15,0,0,0,166.8,66.7Z"/><path d="M83.2,160.9V72.3a5.6,5.6,0,0,0-11.2,0v88.6a5.47,5.47,0,0,0,5.6,5.6A5.72,5.72,0,0,0,83.2,160.9Z"/><path d="M127.6,160.9V72.3a5.6,5.6,0,0,0-11.2,0v88.6a5.47,5.47,0,0,0,5.6,5.6A5.72,5.72,0,0,0,127.6,160.9Z"/></svg>