<svg id="图层_1" data-name="图层 1" xmlns="http://www.w3.org/2000/svg" viewBox="0 0 200 200"><title>shezhi</title><path d="M188.2,88.1a24.79,24.79,0,0,1-15.3-39l3-4.1a9,9,0,0,0-.9-11.7l-5.5-5.5a9,9,0,0,0-11.4-1.1l-3.9,2.7a24.81,24.81,0,0,1-38.4-16.7L115,7.6A9.2,9.2,0,0,0,106,0H97.9a9,9,0,0,0-8.8,7.3l-1.6,8.2A24.88,24.88,0,0,1,49.2,31.4l-6.9-4.7a8.94,8.94,0,0,0-11.4,1.1l-5.6,5.6a9.09,9.09,0,0,0-.9,11.7l3,4.1a24.77,24.77,0,0,1-15.3,39L7.3,89A9,9,0,0,0,0,97.9v7.9a9,9,0,0,0,7.7,8.9l4.9.7a24.77,24.77,0,0,1,16.7,38.4l-2.7,4a8.94,8.94,0,0,0,1.1,11.4l5.6,5.6a9.09,9.09,0,0,0,11.7.9l4.1-3a24.77,24.77,0,0,1,39,15.3l.9,4.7a9,9,0,0,0,8.8,7.3h8a9,9,0,0,0,8.9-7.6l.2-1.3A24.73,24.73,0,0,1,154,174.9l1,.7a9,9,0,0,0,11.7-.9l5.6-5.6a9,9,0,0,0,1.1-11.4l-2.7-3.9a24.81,24.81,0,0,1,16.7-38.4l4.9-.7a9,9,0,0,0,7.7-8.9V97.9a9,9,0,0,0-7.2-8.8ZM102,138.6a36.5,36.5,0,1,1,36.5-36.5A36.51,36.51,0,0,1,102,138.6Z"/></svg>