<svg id="图层_1" data-name="图层 1" xmlns="http://www.w3.org/2000/svg" viewBox="0 0 200 200"><title>tianjia</title><rect x="40.1" y="39.8" width="119.8" height="119.8" fill="#fff"/><path d="M170.7,29.4C131.5-9.8,68.2-9.8,29.3,29.4s-39.3,102.5,0,141.3,102.6,39.2,141.4,0A100.37,100.37,0,0,0,200,99.8,98.12,98.12,0,0,0,170.7,29.4Zm-20.8,77.3H107v43.2a7.2,7.2,0,0,1-14.4,0h0V106.7H49.7a7.2,7.2,0,1,1,0-14.4H92.6V49.4a7.2,7.2,0,0,1,14.4,0V92.6h42.9a7.17,7.17,0,0,1,7.2,7.2,6.92,6.92,0,0,1-7.2,6.9Z" fill="#fab807"/></svg>