<svg id="图层_1" data-name="图层 1" xmlns="http://www.w3.org/2000/svg" viewBox="0 0 200 200"><title>tixing_shezhi</title><path d="M171.4,119.2v-37c0-32.4-21.6-60.1-52.1-67.1A20.12,20.12,0,0,0,100,0,19.88,19.88,0,0,0,80.8,16C52.2,24.5,32,51.7,32,82.2v34.7a35,35,0,0,0-16.4,29.6v.5a33.13,33.13,0,0,0,2.8,13.6l.5.5a11.72,11.72,0,0,0,7.5,6.6c.9.5,2.3.5,4.2.5H170a5.57,5.57,0,0,0,2.8-.5,11.17,11.17,0,0,0,8.9-6.6,35.49,35.49,0,0,0,2.8-14.1v-.5a34.31,34.31,0,0,0-13.1-27.3ZM116,178.9H78.9a21.1,21.1,0,0,0,42.2,0Z"/></svg>