<svg id="图层_1" data-name="图层 1" xmlns="http://www.w3.org/2000/svg" viewBox="0 0 200 200"><title>tixing</title><path d="M39.9,3a8.47,8.47,0,0,1,0,12.4L15.1,40.6a8.47,8.47,0,0,1-12.4,0,8.47,8.47,0,0,1,0-12.4L27.5,3.4A8.81,8.81,0,0,1,39.9,3Z"/><path d="M197.3,40.6a8.47,8.47,0,0,1-12.4,0L160.1,15.8a8.47,8.47,0,0,1,0-12.4,8.47,8.47,0,0,1,12.4,0l24.8,24.8A8.47,8.47,0,0,1,197.3,40.6Z"/><path d="M168.5,169.3a94.51,94.51,0,1,0-136.6.4L17.1,184.5a8.47,8.47,0,0,0,0,12.4,8.47,8.47,0,0,0,12.4,0l16-16a96.23,96.23,0,0,0,54.9,17.6,92.69,92.69,0,0,0,54.9-17.6l15.6,15.6a8.77,8.77,0,1,0,12.4-12.4Zm-10.8-32a8.67,8.67,0,0,1-12,3.2L93.2,110a8.49,8.49,0,0,1-4-5.2,6.81,6.81,0,0,1-.4-2.8V64.4a8.8,8.8,0,0,1,17.6,0V97.2l48,27.6C158.5,127.7,160.1,133.3,157.7,137.3Z"/></svg>