<svg id="图层_1" data-name="图层 1" xmlns="http://www.w3.org/2000/svg" viewBox="0 0 200 200"><title>zhutiseshezhi</title><path d="M199.9,90.6C195.2,39.8,152,0,100,0a100,100,0,0,0,0,200,16.33,16.33,0,0,0,6.5-31.3,14.12,14.12,0,0,1,7.6-26h40.8a45.73,45.73,0,0,0,45-42.6V96.8c0-2.2.2-4.2,0-6.2ZM39.3,103.3A18.1,18.1,0,1,1,57.4,85.2,18.16,18.16,0,0,1,39.3,103.3ZM72.1,57.4A18.1,18.1,0,1,1,90.2,39.3,18.16,18.16,0,0,1,72.1,57.4Zm55.8,0A18.1,18.1,0,1,1,146,39.3,18.16,18.16,0,0,1,127.9,57.4Zm32.8,45.9a18.1,18.1,0,1,1,18.1-18.1,18.16,18.16,0,0,1-18.1,18.1Z"/></svg>